<?xml version="1.0" encoding="UTF-8"?>
<!DOCTYPE svg PUBLIC "-//W3C//DTD SVG 1.1//EN" "http://www.w3.org/Graphics/SVG/1.1/DTD/svg11.dtd">
<!-- Creator: CorelDRAW X7 -->
<svg xmlns="http://www.w3.org/2000/svg" xml:space="preserve" width="48px" height="48px" version="1.1" style="shape-rendering:geometricPrecision; text-rendering:geometricPrecision; image-rendering:optimizeQuality; fill-rule:evenodd; clip-rule:evenodd"
viewBox="0 0 48 48"
 xmlns:xlink="http://www.w3.org/1999/xlink">
 <defs>
  <style type="text/css">
   <![CDATA[
    .fil1 {fill:url(#id0)}
    .fil2 {fill:url(#id1)}
    .fil3 {fill:url(#id2)}
    .fil0 {fill:url(#id3)}
   ]]>
  </style>
  <linearGradient id="id0" gradientUnits="userSpaceOnUse" x1="24.0638" y1="12.427" x2="47.811" y2="12.427">
   <stop offset="0" style="stop-opacity:1; stop-color:#8715F9"/>
   <stop offset="1" style="stop-opacity:1; stop-color:#399CC9"/>
  </linearGradient>
  <linearGradient id="id1" gradientUnits="userSpaceOnUse" xlink:href="#id0" x1="24.0638" y1="35.5695" x2="47.811" y2="35.5695">
  </linearGradient>
  <linearGradient id="id2" gradientUnits="userSpaceOnUse" xlink:href="#id0" x1="0.188986" y1="12.4258" x2="24.0638" y2="12.4258">
  </linearGradient>
  <linearGradient id="id3" gradientUnits="userSpaceOnUse" xlink:href="#id0" x1="0.188986" y1="35.573" x2="24.0638" y2="35.573">
  </linearGradient>
 </defs>
 <g id="Layer_x0020_1">
  <metadata id="CorelCorpID_0Corel-Layer"/>
  <g id="_2103921396000">
   <path class="fil0" d="M24 47c-13,0 -24,-10 -24,-23l24 23z"/>
   <path class="fil1" d="M24 1c0,0 1,0 1,0 13,1 23,11 23,23l0 0 -24 -23z"/>
   <path class="fil2" d="M48 24l-23 0 -1 23 0 0c13,0 24,-10 24,-23z"/>
   <path class="fil3" d="M24 1l0 23 -24 0c0,0 0,-1 0,-1 1,-12 11,-22 24,-22z"/>
  </g>
 </g>
</svg>
